<svg width="91" height="39" viewBox="0 0 91 39" fill="none" xmlns="http://www.w3.org/2000/svg">
<g clip-path="url(#clip0_1_18)">
<path d="M20.1947 38.5307V35.1045L20.1123 35.1339C19.1646 35.5079 18.1335 35.7211 17.0817 35.7607C15.9884 35.8305 14.9019 35.5696 14.03 35.0278C13.4073 34.6362 12.9443 34.1004 12.7017 33.4907C12.434 32.8264 12.4031 32.1139 12.6126 31.4358C12.8071 30.7423 13.2838 30.1228 13.9653 29.6782C14.5696 29.2664 15.3081 29.007 16.0905 28.9316C17.4733 28.8067 18.8706 29.0201 20.1039 29.5446L20.1947 29.583V26.1376L20.0031 26.0958C18.7682 25.7727 17.4717 25.6343 16.1763 25.6876C14.9964 25.7123 13.8345 25.9289 12.7589 26.3246C11.6729 26.7298 10.7155 27.3325 9.96025 28.0863C8.81243 29.2698 8.17543 30.7285 8.14773 32.2366C8.12009 33.7448 8.70337 35.2184 9.80723 36.4292C10.9243 37.5935 12.4925 38.4151 14.2561 38.7601C16.1149 39.1287 18.0628 39.0725 19.8862 38.5999L20.1947 38.5307Z" fill="#00BCEB"/>
<path d="M61.8083 38.5307V35.1045L61.7259 35.1339C60.7781 35.5079 59.7471 35.7211 58.6952 35.7607C57.602 35.8305 56.5155 35.5696 55.6435 35.0278C55.0208 34.6362 54.5579 34.1004 54.3153 33.4907C54.0475 32.8264 54.0166 32.1139 54.2261 31.4358C54.4205 30.7423 54.8973 30.1228 55.5788 29.6782C56.1831 29.2664 56.9216 29.007 57.704 28.9316C59.0869 28.8067 60.4841 29.0201 61.7175 29.5446L61.8083 29.583V26.1376L61.6166 26.0958C60.3817 25.7727 59.0852 25.6343 57.7898 25.6876C56.6099 25.7123 55.448 25.9289 54.3724 26.3246C53.2865 26.7298 52.329 27.3325 51.5737 28.0863C50.426 29.2698 49.7889 30.7285 49.7613 32.2366C49.7336 33.7448 50.3169 35.2184 51.4208 36.4292C52.5378 37.5935 54.106 38.4151 55.8697 38.7601C57.7284 39.1287 59.6763 39.0725 61.4997 38.5999L61.8083 38.5307Z" fill="#00BCEB"/>
<path fill-rule="evenodd" clip-rule="evenodd" d="M35.0518 35.688L35.0359 38.6388L35.3007 38.6758C36.1322 38.8025 36.9711 38.8902 37.8144 38.9395C38.5527 38.9952 39.2951 39.0069 40.0355 38.9744C40.7433 38.9334 41.4436 38.8252 42.1204 38.6539C42.9157 38.4707 43.6533 38.1505 44.2834 37.7148C44.8507 37.3202 45.2843 36.8136 45.5428 36.2435C45.9937 35.2891 45.9847 34.231 45.5176 33.2817C45.2719 32.7891 44.8847 32.3517 44.3885 32.0063C43.9089 31.6541 43.345 31.3867 42.7324 31.2206L40.0002 30.3946C39.6738 30.2815 39.4088 30.0759 39.2545 29.8158C39.195 29.709 39.1669 29.5924 39.1721 29.4752C39.1774 29.358 39.2159 29.2434 39.2848 29.1404C39.3337 29.0673 39.3951 29.0002 39.4672 28.9411C39.5841 28.8437 39.7206 28.7634 39.8707 28.7034C40.1759 28.5801 40.5054 28.5027 40.8442 28.4725C41.4223 28.4046 42.0099 28.4097 42.5861 28.4876C43.2671 28.5479 43.9421 28.6458 44.6054 28.7822L44.7466 28.8075V26.0855L44.486 26.0396C43.8089 25.9076 43.1229 25.808 42.4314 25.7416C41.5353 25.6441 40.6274 25.6409 39.7303 25.732C38.5938 25.8168 37.5126 26.1711 36.6206 26.7512C36.0159 27.138 35.5558 27.6547 35.2923 28.2431C34.8958 29.1394 34.8948 30.1204 35.2898 31.0172C35.4932 31.4624 35.8194 31.8645 36.2448 32.1913C36.6122 32.4803 37.0283 32.7255 37.4806 32.9207C38.0758 33.181 38.7063 33.3831 39.3596 33.5221C39.5756 33.5749 39.79 33.6304 40.0035 33.6886L40.3272 33.7852L40.4196 33.816C40.7391 33.9091 41.03 34.0557 41.2755 34.2462C41.4453 34.3763 41.5765 34.5359 41.658 34.714C41.7085 34.8763 41.7093 35.0462 41.6605 35.2092C41.5582 35.4717 41.3337 35.6911 41.0351 35.8202C40.7097 35.958 40.3571 36.0478 39.9934 36.0853C39.4598 36.1543 38.9187 36.1766 38.3793 36.1517C37.672 36.1085 36.9683 36.0321 36.2717 35.923C35.9077 35.8613 35.5453 35.7928 35.1864 35.7154L35.0518 35.688ZM25.6833 38.758H29.6597V25.9074H25.6833V38.758ZM71.7181 29.7021C72.1434 29.42 72.6328 29.2094 73.1579 29.0824C73.6837 28.9553 74.2351 28.9145 74.7797 28.962C75.3251 29.0096 75.8529 29.1447 76.3335 29.3595C76.8141 29.5744 77.2374 29.8646 77.5792 30.2136C77.9216 30.5626 78.1751 30.9634 78.326 31.3928C78.477 31.8221 78.5215 32.2716 78.4582 32.7151C78.3941 33.1587 78.2236 33.5876 77.9546 33.977C77.6864 34.3664 77.3264 34.7086 76.8943 34.9839C76.0328 35.5262 74.9442 35.771 73.8637 35.6652C72.7825 35.5595 71.7963 35.1118 71.1168 34.4186C70.4374 33.7255 70.1199 32.8426 70.2324 31.9604C70.345 31.0781 70.8789 30.2665 71.7181 29.7021ZM65.9454 32.3385C65.9643 33.3416 66.257 34.3285 66.8021 35.228C67.3473 36.1274 68.1314 36.9168 69.0973 37.5388C70.0633 38.1608 71.1869 38.5998 72.3868 38.8241C73.5873 39.0483 74.833 39.0522 76.0355 38.8354C77.65 38.5877 79.1336 37.9456 80.2896 36.9944C81.4457 36.0433 82.2195 34.8279 82.5073 33.51C82.7952 32.1921 82.5842 30.8339 81.9027 29.6161C81.2205 28.3982 80.0995 27.3782 78.6894 26.6917C77.4369 26.0599 76.0012 25.7095 74.5283 25.6758C73.0561 25.6421 71.5988 25.9264 70.3046 26.4998C69.0103 27.0732 67.9251 27.9154 67.1595 28.9408C66.3939 29.9662 65.9747 31.1385 65.9446 32.3385" fill="#00BCEB"/>
<path d="M0 15.5789C0.028309 15.8803 0.160287 16.1691 0.380802 16.4121C0.601317 16.6552 0.901439 16.8428 1.24677 16.9532C1.59209 17.0636 1.96863 17.0926 2.33322 17.0367C2.69781 16.9808 3.03568 16.8423 3.3081 16.6371C3.67296 16.3611 3.89658 15.983 3.93357 15.5789V12.017C3.92293 11.5978 3.71104 11.1986 3.34336 10.9051C2.97567 10.6117 2.48148 10.4474 1.96679 10.4474C1.45209 10.4474 0.9579 10.6117 0.590213 10.9051C0.222528 11.1986 0.0106394 11.5978 0 12.017V15.5789Z" fill="#00BCEB"/>
<path d="M10.8905 15.5798C10.9282 15.984 11.1517 16.3618 11.5165 16.6375C11.8812 16.9132 12.3602 17.0665 12.8577 17.0669C13.3552 17.0669 13.8344 16.9136 14.199 16.6377C14.5637 16.362 14.787 15.9841 14.8241 15.5798V7.59519C14.8058 7.18018 14.5906 6.78702 14.2238 6.49865C13.8569 6.21026 13.367 6.0491 12.8573 6.0491C12.3476 6.0491 11.8576 6.21026 11.4908 6.49865C11.124 6.78702 10.9087 7.18018 10.8905 7.59519V15.5806" fill="#00BCEB"/>
<path d="M21.7125 18.7944C21.7482 19.1995 21.9708 19.5785 22.3356 19.8553C22.7005 20.132 23.1805 20.2858 23.6789 20.2858C24.1773 20.2858 24.6573 20.132 25.0222 19.8553C25.387 19.5785 25.6096 19.1995 25.6453 18.7944V1.52302C25.6197 1.11214 25.4014 0.724963 25.0354 0.441512C24.6695 0.15806 24.1838 0 23.6789 0C23.174 0 22.6883 0.15806 22.3224 0.441512C21.9564 0.724963 21.7381 1.11214 21.7125 1.52302V18.7944Z" fill="#00BCEB"/>
<path d="M32.6452 15.5798C32.6829 15.984 32.9065 16.3618 33.2711 16.6375C33.6359 16.9132 34.1149 17.0665 34.6124 17.0669C35.11 17.0669 35.5891 16.9136 35.9537 16.6377C36.3184 16.362 36.5416 15.9841 36.5788 15.5798V7.59519C36.5605 7.18018 36.3453 6.78702 35.9785 6.49865C35.6116 6.21026 35.1218 6.0491 34.6119 6.0491C34.1022 6.0491 33.6124 6.21026 33.2455 6.49865C32.8786 6.78702 32.6635 7.18018 32.6452 7.59519V15.5806" fill="#00BCEB"/>
<path d="M43.5094 15.5789C43.5377 15.8803 43.6697 16.1691 43.8902 16.4121C44.1107 16.6552 44.4108 16.8428 44.7562 16.9532C45.1015 17.0636 45.478 17.0926 45.8426 17.0367C46.2072 16.9808 46.5451 16.8423 46.8175 16.6371C47.1824 16.3611 47.406 15.983 47.443 15.5789V12.017C47.4323 11.5978 47.2204 11.1986 46.8527 10.9051C46.485 10.6117 45.9909 10.4474 45.4761 10.4474C44.9615 10.4474 44.4673 10.6117 44.0996 10.9051C43.7319 11.1986 43.52 11.5978 43.5094 12.017V15.5789Z" fill="#00BCEB"/>
<path d="M54.3946 15.5798C54.4323 15.984 54.6559 16.3618 55.0206 16.6375C55.3853 16.9132 55.8643 17.0665 56.3618 17.0669C56.8593 17.0669 57.3385 16.9136 57.7032 16.6377C58.0678 16.362 58.2911 15.9841 58.3282 15.5798V7.59519C58.31 7.18018 58.0947 6.78702 57.7279 6.49865C57.3611 6.21026 56.8711 6.0491 56.3614 6.0491C55.8516 6.0491 55.3618 6.21026 54.9949 6.49865C54.628 6.78702 54.4129 7.18018 54.3946 7.59519V15.5806" fill="#00BCEB"/>
<path d="M65.2219 18.7944C65.2576 19.1995 65.4802 19.5785 65.845 19.8553C66.2099 20.132 66.6899 20.2858 67.1883 20.2858C67.6865 20.2858 68.1664 20.132 68.5318 19.8553C68.8964 19.5785 69.1189 19.1995 69.1546 18.7944V1.52302C69.129 1.11214 68.9106 0.724963 68.5446 0.441512C68.1785 0.15806 67.6932 0 67.1883 0C66.6834 0 66.1977 0.15806 65.8318 0.441512C65.4658 0.724963 65.2475 1.11214 65.2219 1.52302V18.7944Z" fill="#00BCEB"/>
<path d="M76.1549 15.5798C76.192 15.984 76.4157 16.3618 76.7804 16.6375C77.1451 16.9132 77.6244 17.0665 78.1218 17.0669C78.6193 17.0669 79.0986 16.9136 79.4632 16.6377C79.8279 16.362 80.051 15.9841 80.0881 15.5798V7.59519C80.0699 7.18018 79.8549 6.78702 79.4882 6.49865C79.1208 6.21026 78.6314 6.0491 78.1212 6.0491C77.6116 6.0491 77.1215 6.21026 76.7548 6.49865C76.3881 6.78702 76.1731 7.18018 76.1549 7.59519V15.5806" fill="#00BCEB"/>
<path d="M86.9084 15.5789C86.9367 15.8803 87.0681 16.1691 87.2892 16.4121C87.5097 16.6552 87.8096 16.8428 88.1548 16.9532C88.5006 17.0636 88.8767 17.0926 89.2414 17.0367C89.606 16.9808 89.9438 16.8423 90.2161 16.6371C90.5814 16.3611 90.8045 15.983 90.8416 15.5789V12.017C90.8308 11.5978 90.6192 11.1986 90.2518 10.9051C89.8838 10.6117 89.3897 10.4474 88.8747 10.4474C88.3603 10.4474 87.8662 10.6117 87.4982 10.9051C87.1308 11.1986 86.9185 11.5978 86.9084 12.017V15.5789Z" fill="#00BCEB"/>
</g>
<defs>
<clipPath id="clip0_1_18">
<rect width="91" height="39" fill="white"/>
</clipPath>
</defs>
</svg>
