<svg width="146" height="22" viewBox="0 0 146 22" fill="none" xmlns="http://www.w3.org/2000/svg">
<path d="M15.0846 9.83773H9.12019L10.4124 4.60082H15.9283C17.7438 4.60082 18.8117 5.47603 18.8117 6.75298C18.8117 8.43644 17.4341 9.83773 15.0846 9.83773ZM24.9257 6.23646C24.9257 2.63997 21.8287 0 16.4142 0H5.39309L0 21.9998H6.14064L7.99886 14.4433H11.5925L15.1647 21.9998H21.2893L17.4821 14.0799C22.0476 13.439 24.9257 10.1582 24.9257 6.23646Z" fill="white"/>
<path d="M35.5144 13.7642L40.7794 5.65299L42.7711 13.7642H35.5198H35.5144ZM38.2911 0L24.0234 21.9998H30.1481L32.5349 18.3507H43.8978L44.7948 21.9998H50.9195L45.5424 0H38.2911ZM68.5031 9.83773H63.0566L64.3381 4.60082H69.0797C70.9486 4.60082 72.0967 5.39951 72.0967 6.75298C72.0967 8.43644 70.6817 9.83773 68.5084 9.83773M69.7045 0H59.3188L53.9257 21.9998H60.0557L61.9246 14.4338H68.77C74.6223 14.4338 78.1679 10.4834 78.1679 6.31776C78.1679 2.6065 74.9374 0.00478256 69.6991 0.00478256" fill="white"/>
<path d="M90.0366 0H83.896L78.4922 21.9998H84.6328L90.0366 0Z" fill="white"/>
<path d="M134.012 0H114.65C114.944 0.267823 115.238 0.545212 115.505 0.836948C117.673 3.18997 118.815 6.14559 118.815 9.39773C118.815 14.4194 116.455 18.9485 112.664 21.9998H124.518L130.152 9.45991H123.103L124.278 4.59604H138.279L130.926 21.9998H133.809C140.521 22.038 145.06 17.045 145.06 10.9808C145.06 4.91647 140.735 0 134.007 0" fill="#E85E26"/>
<path d="M99.8221 17.4085H96.4314L99.5818 4.60082H102.786C106.299 4.60082 108.269 6.95863 108.269 9.90947C108.269 13.879 105.108 17.4085 99.8328 17.4085M112.125 3.58692C110.021 1.29129 106.545 0 102.444 0H94.5732L89.1641 21.9998H99.0692C102.914 21.9998 105.872 21.2346 108.131 20.015C112.723 17.5185 114.351 13.1281 114.351 9.39773C114.351 7.07341 113.54 5.10299 112.13 3.58692" fill="white"/>
</svg>
