<svg width="95" height="29" viewBox="0 0 95 29" fill="none" xmlns="http://www.w3.org/2000/svg">
<g clip-path="url(#clip0_99_51)">
<path d="M0 13.5842H1.8525V15.1992H1.9C2.09 14.5817 3.3725 13.2992 5.2725 13.2992C5.95107 13.258 6.62637 13.4216 7.2108 13.7689C7.79523 14.1161 8.26181 14.631 8.55 15.2467C8.88295 14.6575 9.36599 14.1669 9.95 13.8248C10.534 13.4827 11.1982 13.3014 11.875 13.2992C15.105 13.2992 15.865 15.5792 15.865 17.9542V24.0342H13.87V18.2392C13.87 16.6717 13.5375 15.1992 11.6375 15.1992C9.7375 15.1992 8.9775 16.4817 8.9775 18.3342V24.0817H6.9825V18.5717C6.9825 16.5767 6.6975 15.1517 4.7975 15.1517C3.3725 15.1517 2.09 16.2442 2.09 18.5717V24.0342H0V13.5842Z" fill="white"/>
<path d="M19.2412 19.5699C19.2412 21.4224 20.9513 22.6099 22.7562 22.6099C23.9912 22.6099 24.8462 21.9924 25.6537 21.0424L27.1262 22.1824C26.0337 23.6074 24.5137 24.3199 22.4712 24.3199C19.1462 24.3199 17.1037 21.8974 17.1037 18.8099C17.083 18.0847 17.2098 17.3629 17.4764 16.6881C17.7429 16.0134 18.1437 15.3998 18.6545 14.8846C19.1653 14.3694 19.7754 13.9633 20.4478 13.6909C21.1202 13.4185 21.8409 13.2854 22.5662 13.2999C26.2712 13.2999 27.6487 16.1024 27.6487 18.8099V19.5224L19.2412 19.5699ZM25.5112 17.9549C25.4637 16.1974 24.5137 14.9149 22.4712 14.9149C21.6465 14.9135 20.8525 15.2276 20.2519 15.7928C19.6514 16.358 19.2898 17.1316 19.2412 17.9549H25.5112Z" fill="white"/>
<path d="M34.5319 15.2956H31.6819V20.0456C31.6819 21.2331 31.6819 22.4681 33.1544 22.4681C33.6513 22.4948 34.1456 22.3794 34.5794 22.1356V23.9406C34.0083 24.184 33.3951 24.3131 32.7744 24.3206C29.6869 24.3206 29.6394 22.4206 29.6394 20.7581V15.2956H27.3594V13.5856H29.6394V10.6406H31.6344V13.5856H34.4844V15.2956H34.5319Z" fill="white"/>
<path d="M36.0075 14.8683C37.1504 13.8638 38.6184 13.3069 40.14 13.3008C43.2275 13.3008 44.51 15.0108 44.51 16.8158V22.1833C44.51 22.8483 44.5575 23.4658 44.605 24.0833H42.8475C42.8 23.5608 42.8 22.9908 42.8 22.5158H42.7525C41.8975 23.8933 40.6625 24.3683 39.095 24.3683C37.1475 24.3683 35.4375 23.2758 35.4375 21.2333C35.4375 18.5258 38.05 17.5758 41.2325 17.5758H42.7525V17.1008C42.7525 16.0083 41.9925 14.9158 40.235 14.9158C38.715 14.9158 38.0025 15.5808 37.2425 16.1033L36.0075 14.8683ZM41.66 19.0483C39.76 19.0483 37.48 19.3808 37.48 21.0433C37.48 22.2308 38.335 22.7533 39.7125 22.7533C41.8975 22.7533 42.705 21.1383 42.705 19.7133V19.0483H41.66Z" fill="white"/>
<path d="M52.2491 16.1983C51.9973 15.8712 51.6735 15.6067 51.3027 15.4255C50.9319 15.2442 50.5243 15.1511 50.1116 15.1533C49.1616 15.1533 48.3541 15.5808 48.3541 16.3408C48.3541 17.6233 50.1591 17.7658 51.0141 17.9558C52.7241 18.3833 54.0541 19.0483 54.0541 20.9958C54.0541 23.3708 51.8691 24.3208 49.8266 24.3208C48.1166 24.3208 46.7866 23.8458 45.7891 22.4683L47.2616 21.2333C47.9266 21.8983 48.6391 22.4683 49.7791 22.4683C50.7766 22.4683 51.8691 22.0408 51.8691 21.1383C51.8691 19.9508 50.2066 19.7133 49.3516 19.5233C47.6416 19.0958 46.1216 18.5733 46.1216 16.5308C46.1216 14.3458 48.1166 13.3008 50.1116 13.3008C51.4891 13.3008 52.9141 13.7758 53.6741 15.0108L52.2491 16.1983Z" fill="white"/>
<path d="M55.3359 13.5843H57.3309V15.0568H57.3784C57.8105 14.5008 58.3658 14.0527 59.0004 13.7478C59.6351 13.4428 60.3319 13.2893 61.0359 13.2993C64.2659 13.2993 66.3559 15.7218 66.3559 18.8093C66.3559 21.8968 64.2659 24.3193 61.0359 24.3193C60.325 24.3418 59.6194 24.189 58.9815 23.8742C58.3436 23.5594 57.793 23.0923 57.3784 22.5143H57.3309V28.0243H55.3359V13.5843ZM57.3784 18.8093C57.3784 20.8993 58.7084 22.4668 60.7984 22.4668C62.8884 22.4668 64.2184 20.9943 64.2184 18.8093C64.2184 16.6243 62.8884 15.1518 60.7509 15.1518C58.6134 15.1518 57.3784 16.7193 57.3784 18.8093Z" fill="white"/>
<path d="M67.9219 7.36328H69.9169V24.0833H67.9219V7.36328Z" fill="white"/>
<path d="M76.4247 13.3477C77.8903 13.3539 79.2935 13.9414 80.3265 14.981C81.3594 16.0207 81.9378 17.4276 81.9347 18.8932C81.9315 20.3588 81.3471 21.7633 80.3097 22.7985C79.2723 23.8337 77.8665 24.4151 76.4009 24.4151C74.9354 24.4151 73.5296 23.8337 72.4922 22.7985C71.4547 21.7633 70.8703 20.3588 70.8672 18.8932C70.8641 17.4276 71.4424 16.0207 72.4754 14.981C73.5084 13.9414 74.9116 13.3539 76.3772 13.3477H76.4247ZM76.4247 22.4677C78.5147 22.4677 79.8447 20.9477 79.8447 18.8102C79.8447 16.6727 78.5147 15.1527 76.4247 15.1527C74.3347 15.1527 73.0047 16.6727 73.0047 18.8102C73.0047 20.9477 74.2872 22.4677 76.4247 22.4677Z" fill="white"/>
<path d="M83.9334 8.35938C84.2247 8.35937 84.5094 8.44574 84.7515 8.60754C84.9937 8.76934 85.1824 8.99931 85.2938 9.26837C85.4053 9.53744 85.4345 9.83351 85.3776 10.1191C85.3208 10.4048 85.1806 10.6672 84.9746 10.8731C84.7687 11.079 84.5063 11.2193 84.2207 11.2761C83.9351 11.3329 83.639 11.3037 83.3699 11.1923C83.1009 11.0808 82.8709 10.8921 82.7091 10.65C82.5473 10.4078 82.4609 10.1231 82.4609 9.83188C82.4706 9.44438 82.6288 9.07541 82.9029 8.80132C83.177 8.52724 83.5459 8.36901 83.9334 8.35938ZM82.9359 13.5844H84.9309V24.0819H82.9359V13.5844Z" fill="white"/>
<path d="M92.8131 15.2956H89.9631V20.0456C89.9631 21.2331 89.9631 22.4681 91.4356 22.4681C91.9326 22.4948 92.4268 22.3794 92.8606 22.1356V23.9406C92.2896 24.184 91.6763 24.3131 91.0556 24.3206C87.9681 24.3206 87.9206 22.4206 87.9206 20.7581V15.2956H85.6406V13.5856H87.9206V10.6406H89.9156V13.5856H92.7656V15.2956H92.8131Z" fill="white"/>
<path d="M93.4347 7.50586C93.7447 7.50586 94.0478 7.59779 94.3055 7.77003C94.5633 7.94227 94.7642 8.18708 94.8829 8.4735C95.0015 8.75993 95.0326 9.0751 94.9721 9.37916C94.9116 9.68323 94.7623 9.96253 94.5431 10.1817C94.3239 10.401 94.0446 10.5503 93.7405 10.6107C93.4364 10.6712 93.1213 10.6402 92.8348 10.5215C92.5484 10.4029 92.3036 10.202 92.1314 9.94422C91.9591 9.68644 91.8672 9.38338 91.8672 9.07336C91.8709 8.65878 92.0372 8.26224 92.3304 7.96908C92.6236 7.67592 93.0201 7.50958 93.4347 7.50586ZM93.4347 10.3559C93.6977 10.3559 93.9549 10.2779 94.1736 10.1317C94.3923 9.98557 94.5628 9.77785 94.6635 9.53483C94.7641 9.2918 94.7905 9.02438 94.7391 8.76639C94.6878 8.50839 94.5611 8.27141 94.3751 8.08541C94.1891 7.8994 93.9522 7.77273 93.6942 7.72141C93.4362 7.6701 93.1687 7.69644 92.9257 7.7971C92.6827 7.89776 92.475 8.06823 92.3288 8.28695C92.1827 8.50567 92.1047 8.76281 92.1047 9.02586C92.112 9.37632 92.2544 9.71039 92.5023 9.95826C92.7502 10.2061 93.0842 10.3486 93.4347 10.3559ZM93.1022 9.92836H92.8647V8.12336H93.5297C93.9097 8.12336 94.0997 8.26586 94.0997 8.59836C94.0942 8.72729 94.0437 8.85021 93.9569 8.9457C93.8701 9.04119 93.7525 9.10318 93.6247 9.12086L94.1947 9.88086H93.9572L93.4347 9.12086H93.1022V9.92836ZM93.1022 8.93086H93.3872C93.6247 8.93086 93.9097 8.93086 93.9097 8.59836C93.9097 8.36086 93.7197 8.31336 93.5297 8.31336H93.1022V8.93086Z" fill="white"/>
<path d="M4.655 3.3725H2.8025L3.1825 1.5675H4.8925C5.4625 1.5675 5.795 1.8525 5.795 2.3275C5.79488 2.47289 5.76456 2.61667 5.70596 2.74973C5.64737 2.88279 5.56177 3.00222 5.45459 3.10046C5.34742 3.19871 5.221 3.27362 5.08336 3.32045C4.94572 3.36727 4.79985 3.385 4.655 3.3725ZM7.695 2.1375C7.695 0.9025 6.745 0 5.0825 0H1.6625L0 7.5525H1.9L2.47 4.94H3.5625L4.655 7.5525H6.555L5.3675 4.845C6.01788 4.75284 6.61257 4.42738 7.04078 3.92926C7.46898 3.43114 7.7015 2.79434 7.695 2.1375Z" fill="white"/>
<path d="M10.9212 4.75L12.5362 1.9475L13.1538 4.75H10.9212ZM11.7762 0L7.40625 7.5525H9.30625L10.0187 6.3175H13.5337L13.8187 7.5525H15.7187L14.0087 0H11.7762Z" fill="white"/>
<path d="M21.09 3.3725H19.4275L19.8075 1.5675H21.28C21.85 1.5675 22.23 1.8525 22.23 2.3275C22.214 2.61604 22.0858 2.88688 21.8728 3.08215C21.6598 3.27742 21.3788 3.38162 21.09 3.3725ZM21.47 0H18.2875L16.625 7.5525H18.525L19.095 4.94H21.185C21.5611 4.95342 21.9361 4.89082 22.2874 4.75594C22.6388 4.62106 22.9593 4.41668 23.2298 4.15503C23.5003 3.89338 23.7153 3.57984 23.8618 3.23318C24.0083 2.88651 24.0834 2.51385 24.0825 2.1375C24.0825 0.9025 23.085 0 21.47 0Z" fill="white"/>
<path d="M27.6947 0H25.8422L24.1797 7.5525H26.0322L27.6947 0Z" fill="white"/>
<path d="M41.2269 0H35.2894L35.5744 0.285C36.2453 1.11749 36.5988 2.16116 36.5719 3.23C36.5799 4.04404 36.4147 4.85048 36.0871 5.59574C35.7595 6.341 35.2771 7.00802 34.6719 7.5525H38.3294L40.0394 3.23H37.8544L38.2344 1.5675H42.5569L40.2769 7.5525H41.1794C43.2694 7.5525 44.6469 5.8425 44.6469 3.7525C44.6469 1.6625 43.3169 0 41.2269 0Z" fill="#E95F26"/>
<path d="M30.7306 5.98558H29.6856L30.6356 1.56808H31.6331C31.8675 1.56201 32.1006 1.6053 32.3172 1.69515C32.5337 1.785 32.729 1.91939 32.8903 2.08961C33.0515 2.25983 33.1752 2.46207 33.2532 2.68319C33.3312 2.9043 33.3619 3.13936 33.3431 3.37308C33.3523 3.71866 33.291 4.06247 33.1629 4.38357C33.0349 4.70467 32.8428 4.99633 32.5983 5.24077C32.3539 5.48521 32.0622 5.67731 31.7411 5.80536C31.42 5.93342 31.0762 5.99474 30.7306 5.98558ZM34.5306 1.23558C34.1535 0.822078 33.6898 0.496964 33.1725 0.283473C32.6552 0.0699824 32.0971 -0.0266145 31.5381 0.000584963H29.1156L27.4531 7.55308H30.4931C31.4683 7.5704 32.4322 7.34169 33.2956 6.88808C33.9044 6.49767 34.4001 5.95452 34.7335 5.31277C35.0669 4.67103 35.2262 3.95311 35.1956 3.23059C35.2167 2.50789 34.9811 1.8011 34.5306 1.23558Z" fill="white"/>
</g>
<defs>
<clipPath id="clip0_99_51">
<rect width="95" height="28.025" fill="white"/>
</clipPath>
</defs>
</svg>
