<svg xmlns="http://www.w3.org/2000/svg" width="120" height="20" viewBox="0 0 120 20">
                <g fill="#004FB5" fill-rule="evenodd">
                    <path d="M101.236 16.433h10.465c1.626 0 2.516-.15 3.037-.48.644-.39 1.01-1.05 1.01-1.83 0-.93-.489-1.738-1.317-2.129-.431-.24-1.227-.36-2.21-.36h-4.367c-2.453 0-4.048-.42-5.121-1.318-1.227-1.05-1.932-2.669-1.932-4.41 0-2.547 1.44-4.766 3.556-5.485C105.28.089 106.35 0 108.744 0h10.666v3.568h-9.685c-1.933.031-2.679.031-3.324.18-.858.21-1.38.99-1.38 2.039 0 .9.428 1.62 1.166 1.95.613.269 1.698.329 3.172.329h3.28c3.008 0 4.632.45 5.83 1.65.919.898 1.532 2.668 1.532 4.406 0 2.13-1.013 4.11-2.608 5.069-1.011.628-2.3.809-5.337.809h-10.82v-3.567ZM86.063 5.453c-.585.947-.863 2.467-.863 4.505 0 4.475 1.499 6.513 4.828 6.513 3.274 0 4.772-2.038 4.772-6.456 0-4.477-1.47-6.486-4.772-6.486-1.802 0-3.218.69-3.966 1.924Zm11.67-2.404c1.198 1.597 1.867 4.198 1.867 7.248 0 3.46-1.08 6.3-3.004 7.868C95.136 19.347 92.92 20 90.292 20c-3.734 0-6.68-1.243-8.198-3.463-1.138-1.626-1.694-3.785-1.694-6.418 0-3.786 1.021-6.657 2.947-8.197C84.865.68 87.259 0 90 0c3.472 0 6.244 1.095 7.733 3.05ZM77.999 20h-4.41v-8.246H65.61V20h-4.411V0h4.411v8.185h7.979V0h4.41zM52.26 9.412c1.074 0 1.696-.151 2.121-.571.509-.451.819-1.41.819-2.52 0-1.32-.51-2.28-1.385-2.61-.312-.122-.82-.182-1.471-.182H46.8v5.882h5.46ZM46.296 20H42V0h10.076c3.538 0 4.779.359 6.11 1.828C59.366 3.088 60 4.738 60 6.506c0 2.099-.845 4.048-2.238 5.22-1.178.987-2.27 1.286-4.568 1.286h-6.897V20ZM26.06 5.453c-.584.947-.86 2.467-.86 4.505 0 4.475 1.498 6.513 4.828 6.513 3.273 0 4.772-2.038 4.772-6.456 0-4.477-1.47-6.486-4.772-6.486-1.803 0-3.22.69-3.968 1.924Zm11.673-2.404C38.93 4.646 39.6 7.247 39.6 10.297c0 3.46-1.079 6.3-3.006 7.868C35.137 19.347 32.92 20 30.292 20c-3.735 0-6.682-1.243-8.199-3.463-1.138-1.626-1.693-3.785-1.693-6.418 0-3.786 1.022-6.657 2.949-8.197C24.864.68 27.258 0 30 0c3.471 0 6.245 1.095 7.732 3.05ZM.435 16.433h10.466c1.624 0 2.515-.15 3.036-.48.645-.39 1.012-1.05 1.012-1.83 0-.93-.49-1.738-1.319-2.129-.43-.24-1.226-.36-2.208-.36H7.056c-2.454 0-4.05-.42-5.123-1.318C.707 9.266 0 7.647 0 5.906 0 3.36 1.443 1.14 3.559.421 4.479.089 5.55 0 7.945 0h10.666v3.568H8.925c-1.932.031-2.68.031-3.322.18-.86.21-1.38.99-1.38 2.039 0 .9.43 1.62 1.164 1.95.614.269 1.7.329 3.171.329h3.28c3.007 0 4.632.45 5.828 1.65.92.898 1.534 2.668 1.534 4.406 0 2.13-1.012 4.11-2.607 5.069-1.011.628-2.299.809-5.335.809H.436v-3.567Z"></path>
                </g>
            </svg>