<svg width="144" height="16" viewBox="0 0 144 16" fill="none" xmlns="http://www.w3.org/2000/svg">
<g clip-path="url(#clip0_98_34)">
<path d="M82.6612 3.40364V0H86.6185V15.9418H82.6612V3.40364ZM65.2371 0H80.5053V3.43273H73.329V15.9709H69.4011V3.43273H65.2371V0ZM144 0V3.43273H136.824V15.9709H132.896V3.43273H128.732V0H144ZM0 0H17.1288V3.43273H3.95734V6.83636H15.1797V10.2691H3.95734V15.9418H0V0ZM110.599 0H126.546V3.43273H114.556V6.28364H124.39V9.71636H114.556V12.5673H126.753V16H110.599V0ZM107.557 4.50909V15.9418H103.6V4.50909C103.6 3.89818 103.127 3.43273 102.507 3.43273H93.6473V15.9709H89.6899V0H102.979C105.49 0 107.557 2.03636 107.557 4.50909ZM59.1534 0H45.6571V15.9418H49.6144V10.2691H58.4742C58.9467 10.2982 59.3306 10.6764 59.3306 11.1418V15.9709H63.2879V11.0836C63.2879 10.24 62.8154 9.51273 62.1066 9.10545C62.9631 8.32 63.4947 7.18545 63.4947 5.96364V4.27636C63.5242 1.92 61.5751 0 59.1534 0ZM59.5669 5.96364C59.5669 6.42909 59.1829 6.83636 58.6809 6.83636H49.6144V3.43273H58.6809C59.1534 3.43273 59.5669 3.81091 59.5669 4.30545V5.96364Z" fill="white"/>
<path d="M42.5892 5.93455V10.0655H36.033V5.93455H42.5892ZM27.7344 15.9418H34.2611V11.8109H27.7344V15.9418ZM42.5892 3.46182C42.5892 1.54182 41.024 0 39.0748 0H36.0625V4.13091H42.5892V3.46182ZM27.7344 0V4.13091H34.2611V0H27.7344ZM19.4062 5.93455V10.0655H25.9329V5.93455H19.4062ZM36.033 15.9418H39.0453C40.9944 15.9418 42.5597 14.4 42.5597 12.48V11.8109H36.033V15.9418ZM19.4062 12.48C19.4062 14.4 20.9715 15.9418 22.9206 15.9418H25.9329V11.8109H19.4062V12.48ZM19.4062 3.46182V4.13091H25.9329V0H22.9206C20.9715 0 19.4062 1.54182 19.4062 3.46182Z" fill="#DA291C"/>
</g>
<defs>
<clipPath id="clip0_98_34">
<rect width="144" height="16" fill="white"/>
</clipPath>
</defs>
</svg>
