<svg width="230" height="44" viewBox="0 0 230 44" fill="none" xmlns="http://www.w3.org/2000/svg">
<path d="M227.13 9.49315L227.129 9.36143C227.126 8.70284 226.598 8.24402 225.741 8.24759L224.227 8.25391L224.241 11.8103L224.966 11.8073L224.961 10.6218L225.751 10.6185L226.349 11.8015L227.139 11.7982L226.409 10.4182C226.869 10.2846 227.131 9.88831 227.13 9.49315ZM224.954 8.90948L225.744 8.90619C226.205 8.90426 226.403 9.03516 226.405 9.43032L226.405 9.49617C226.407 9.82547 226.21 10.0239 225.749 10.0258L224.958 10.0291L224.954 8.90948Z" fill="white"/>
<path d="M225.599 6.40286C223.491 6.41165 221.983 7.9986 221.992 10.0402C222 12.0819 223.587 13.6559 225.629 13.6474C227.671 13.6389 229.245 12.0517 229.236 10.01C229.228 7.96839 227.64 6.39435 225.599 6.40286ZM225.627 13.1864C223.849 13.1938 222.526 11.8821 222.519 10.038C222.511 8.19398 223.823 6.8713 225.601 6.86388C227.379 6.85647 228.702 8.16816 228.709 10.0122C228.717 11.8563 227.405 13.179 225.627 13.1864Z" fill="white"/>
<path d="M215.28 42.341L215.273 40.8263C216.197 41.2834 217.121 41.543 217.911 41.5397C218.504 41.5373 218.832 41.4042 218.831 41.1407C218.83 40.8773 218.632 40.8123 217.446 40.6196C216.128 40.4275 215.27 40.0359 215.266 38.9163C215.261 37.8626 216.18 37.0684 217.958 37.061C218.683 37.058 219.408 37.1867 220.133 37.513L220.14 39.0277C219.479 38.6353 218.622 38.4413 217.898 38.4443C217.239 38.4471 217.042 38.5796 217.043 38.8431C217.045 39.1724 217.44 39.1707 218.429 39.3642C219.747 39.5563 220.605 39.9478 220.609 41.1333C220.613 42.0553 219.959 42.9801 217.983 42.9884C216.863 42.8613 216.137 42.6668 215.28 42.341Z" fill="white"/>
<path d="M208.07 37.1699L209.717 37.1631L209.725 39.2047L210.384 39.202L212.022 37.1534L213.866 37.1458L211.769 39.7889L214.021 42.6774L212.111 42.6854L210.456 40.5847L209.797 40.5875L209.806 42.695L208.159 42.7018L208.136 37.1696L208.07 37.1699Z" fill="white"/>
<path d="M200.503 37.2009L203.73 37.1874C205.179 37.1814 205.907 37.9028 205.912 39.1542C205.916 40.0103 205.523 40.6706 204.866 40.9368L206.19 42.7095L204.28 42.7174L203.221 41.2729L202.101 41.2776L202.107 42.7265L200.461 42.7334L200.438 37.2012L200.503 37.2009ZM203.479 40.0205C204.006 40.0183 204.202 39.6882 204.2 39.293C204.199 38.8979 204 38.5694 203.473 38.5716L202.09 38.5774L202.096 40.0263L203.479 40.0205Z" fill="white"/>
<path d="M192.333 40.0008C192.325 38.2226 193.572 37.0319 195.482 37.0239C197.392 37.016 198.648 38.1304 198.655 39.9744C198.663 41.7526 197.416 42.9433 195.506 42.9513C193.596 42.9592 192.34 41.8449 192.333 40.0008ZM197.009 39.9813C197.005 38.9934 196.476 38.4687 195.488 38.4728C194.5 38.477 193.975 39.0719 193.979 39.9939C193.983 40.9818 194.512 41.5065 195.5 41.5024C196.488 41.5641 197.013 40.9692 197.009 39.9813Z" fill="white"/>
<path d="M181.797 37.2773L183.575 37.2699L184.513 41.0859L184.579 41.0857L185.748 37.2609L187.395 37.254L188.53 41.0692L188.596 41.0689L189.437 37.2455L191.149 37.2383L189.723 42.7766L187.55 42.7857L186.548 39.4309L186.482 39.4312L185.442 42.7944L183.269 42.8035L181.797 37.2773Z" fill="white"/>
<path d="M176.869 38.7456L174.959 38.7536L175.019 37.3044L180.419 37.2819L180.491 38.7305L178.581 38.7385L178.598 42.8218L176.952 42.8286L176.935 38.7454L176.869 38.7456Z" fill="white"/>
<path d="M168.5 37.334L173.308 37.3139L173.379 38.6309L170.152 38.6443L170.155 39.4346L172.724 39.4239L172.729 40.6752L170.16 40.686L170.164 41.5421L173.523 41.5281L173.463 42.8456L168.523 42.8662L168.5 37.334Z" fill="white"/>
<path d="M160.656 37.3672L162.369 37.36L164.753 40.5114L164.74 37.3502L166.32 37.3436L166.343 42.8758L164.697 42.8826L162.246 39.6657L162.26 42.8928L160.679 42.8994L160.656 37.3672Z" fill="white"/>
<path d="M209.075 7.79096C202.225 7.81952 197.371 12.5817 197.399 19.1677L197.402 19.958C197.43 26.544 202.323 31.2655 209.172 31.237C216.022 31.2084 220.876 26.4462 220.848 19.8602L220.845 19.0699C220.817 12.484 215.924 7.7624 209.075 7.79096ZM213.932 19.6915C213.947 23.182 212.179 25.6263 209.149 25.6389C206.119 25.6515 204.331 23.1563 204.317 19.7316L204.315 19.3364C204.3 15.8459 206.068 13.4017 209.098 13.389C212.127 13.3764 213.916 15.8716 213.93 19.2963L213.932 19.6915Z" fill="white"/>
<path d="M190.848 25.716C188.873 25.7243 188.144 24.7394 188.135 22.6977L188.097 13.4115L196 13.3786L195.978 8.17569L188.075 8.20864L188.054 3.0716L181.34 4.0875L181.421 23.3843C181.442 28.6531 184.154 31.3421 189.554 31.3196C191.925 31.3097 194.754 30.5734 197.054 29.2466L195.124 24.5127C193.744 25.2429 191.836 25.7119 190.848 25.716Z" fill="white"/>
<path d="M177.491 0.216129L170.773 0.244141L170.902 31.0005L177.619 30.9725L177.491 0.216129Z" fill="white"/>
<path d="M156.645 8.00962C153.681 8.02198 150.589 8.8252 146.843 10.8825L148.973 16.0766C152.258 14.2188 155.021 13.417 156.996 13.4087C159.236 13.3994 160.293 14.2512 160.298 15.3708L160.298 15.4366C160.301 16.227 159.71 16.6246 158.196 16.7626L155.563 17.037C149.046 17.7887 146.357 20.6319 146.373 24.5176L146.374 24.7811C146.39 28.535 149.498 31.42 153.844 31.4018C156.676 31.39 159.174 30.1941 160.68 28.0144L161.153 30.9762L167.08 30.9515L167.025 17.582C166.932 11.2598 163.296 7.98188 156.645 8.00962ZM156.128 26.321C153.955 26.3301 152.898 25.4783 152.892 24.1611L152.892 24.0953C152.887 22.9098 153.542 22.1167 155.911 21.7117L156.965 21.5756C158.479 21.3717 159.4 21.1044 160.253 20.574L160.261 22.2863C160.271 24.8548 158.697 26.3103 156.128 26.321Z" fill="white"/>
<path d="M133.004 8.10932C126.155 8.13788 121.301 12.9001 121.328 19.486L121.332 20.2764C121.359 26.8623 126.253 31.5839 133.102 31.5553C139.951 31.5268 144.805 26.7645 144.778 20.1786L144.774 19.3883C144.747 12.8023 139.854 8.08076 133.004 8.10932ZM137.862 20.0098C137.876 23.5004 136.108 25.9446 133.079 25.9573C130.049 25.9699 128.26 23.4746 128.246 20.0499L128.245 19.6548C128.23 16.1642 129.998 13.72 133.028 13.7074C136.057 13.6947 137.846 16.19 137.86 19.6147L137.862 20.0098Z" fill="white"/>
<path d="M118.218 0.464176L111.5 0.492188L111.628 31.2486L118.346 31.2206L118.218 0.464176Z" fill="white"/>
<path d="M97.4493 8.25767C94.4856 8.27002 91.3935 9.07325 87.6481 11.1305L89.7773 16.3247C93.0625 14.4669 95.8254 13.665 97.8011 13.6568C100.04 13.6474 101.098 14.4992 101.102 15.6188L101.103 15.6847C101.106 16.475 100.515 16.8726 99.0006 17.0107L96.3673 17.2851C89.8503 18.0367 87.1618 20.88 87.178 24.7657L87.1791 25.0291C87.1948 28.7831 90.3023 31.668 94.649 31.6499C97.481 31.6381 99.9787 30.4422 101.484 28.2625L101.958 31.2242L107.885 31.1995L107.829 17.83C107.737 11.5078 104.035 8.2302 97.4493 8.25767ZM96.9329 26.5691C94.7596 26.5781 93.7022 25.7264 93.6968 24.4092L93.6965 24.3433C93.6915 23.1578 94.3468 22.3648 96.7161 21.9597L97.7693 21.8236C99.2833 21.6197 100.204 21.3525 101.058 20.822L101.065 22.5344C101.076 25.1029 99.4356 26.5587 96.9329 26.5691Z" fill="white"/>
<path d="M75.7099 8.34882C72.6803 8.36146 70.1834 9.75494 68.875 11.8679L68.3353 8.77474L62.4079 8.79945L62.5345 39.1607L69.2522 39.1327L69.2082 28.5952C70.4678 30.5657 72.9098 31.8069 75.8076 31.7948C81.2081 31.7723 85.5351 27.0123 85.5076 20.4263L85.5043 19.636C85.5427 13.0498 81.1104 8.3263 75.7099 8.34882ZM78.5915 20.2576C78.6061 23.7481 76.8381 26.1924 73.8085 26.205C70.779 26.2176 68.9903 23.7224 68.9761 20.2977L68.9744 19.9025C68.9598 16.412 70.7279 13.9678 73.7574 13.9551C76.787 13.9425 78.5756 16.4377 78.5899 19.8624L78.5915 20.2576Z" fill="white"/>
<path d="M41.7131 8.35545L34.1077 0.813184L26.5654 8.41861L30.3351 12.157L11.4469 31.2694L19.0523 38.8117L26.5946 31.2063L22.825 27.4679L41.7131 8.35545Z" fill="#FA582D"/>
<path d="M18.9675 0.875987L0.0790907 19.9226L7.68452 27.4649L26.573 8.41825L18.9675 0.875987Z" fill="#FA582D"/>
<path d="M45.5568 12.0945L26.6028 31.2072L34.2082 38.7495L53.0967 19.7029L45.5568 12.0945Z" fill="#FA582D"/>
</svg>
