<svg width="68" height="30" viewBox="0 0 68 30" fill="none" xmlns="http://www.w3.org/2000/svg">
<path d="M15.1123 28.9154V26.3444L15.0506 26.3665C14.3412 26.647 13.5694 26.807 12.782 26.8368C11.9636 26.8891 11.1504 26.6933 10.4976 26.2868C10.0315 25.9929 9.68493 25.5909 9.50333 25.1334C9.30295 24.6349 9.27981 24.1002 9.43663 23.5914C9.58219 23.071 9.93905 22.6061 10.4492 22.2724C10.9016 21.9634 11.4544 21.7687 12.04 21.7122C13.0752 21.6184 14.1211 21.7786 15.0443 22.1722L15.1123 22.201V19.6156L14.9688 19.5842C14.0444 19.3417 13.0739 19.2379 12.1042 19.2779C11.221 19.2964 10.3513 19.4589 9.54613 19.7559C8.73324 20.0599 8.01655 20.5122 7.45119 21.0779C6.59201 21.966 6.11516 23.0606 6.09445 24.1923C6.07375 25.324 6.51034 26.4298 7.33666 27.3384C8.17284 28.2121 9.34672 28.8287 10.6669 29.0876C12.0583 29.3641 13.5164 29.322 14.8813 28.9673L15.1123 28.9154" fill="#00BCEB"/>
<path d="M46.2685 28.9154V26.3444L46.2069 26.3665C45.4974 26.647 44.7256 26.807 43.9382 26.8368C43.1199 26.8891 42.3066 26.6933 41.6539 26.2868C41.1878 25.9929 40.8412 25.5909 40.6596 25.1334C40.4592 24.6349 40.4361 24.1002 40.5929 23.5914C40.7384 23.071 41.0953 22.6061 41.6054 22.2724C42.0578 21.9634 42.6106 21.7687 43.1963 21.7122C44.2314 21.6184 45.2773 21.7786 46.2006 22.1722L46.2685 22.201V19.6156L46.1251 19.5842C45.2007 19.3417 44.2301 19.2379 43.2605 19.2779C42.3773 19.2964 41.5076 19.4589 40.7024 19.7559C39.8895 20.0599 39.1728 20.5122 38.6074 21.0779C37.7483 21.966 37.2714 23.0606 37.2507 24.1923C37.23 25.324 37.6666 26.4298 38.4929 27.3384C39.3291 28.2121 40.503 28.8287 41.8232 29.0876C43.2145 29.3641 44.6726 29.322 46.0376 28.9673L46.2685 28.9154" fill="#00BCEB"/>
<path fill-rule="evenodd" clip-rule="evenodd" d="M26.2395 26.7803L26.2275 28.9946L26.4258 29.0224C27.0481 29.1175 27.6762 29.1833 28.3074 29.2203C28.86 29.2621 29.4157 29.2709 29.97 29.2465C30.4998 29.2156 31.024 29.1344 31.5306 29.0059C32.1259 28.8685 32.6781 28.6282 33.1498 28.3012C33.5744 28.0051 33.899 27.625 34.0925 27.1972C34.43 26.481 34.4233 25.687 34.0736 24.9746C33.8897 24.605 33.5999 24.2768 33.2285 24.0176C32.8694 23.7533 32.4474 23.5526 31.9888 23.428L29.9435 22.8081C29.6992 22.7233 29.5009 22.569 29.3853 22.3738C29.3409 22.2936 29.3198 22.2062 29.3237 22.1182C29.3277 22.0303 29.3565 21.9443 29.408 21.867C29.4447 21.8121 29.4906 21.7618 29.5446 21.7174C29.6321 21.6444 29.7343 21.5841 29.8466 21.5391C30.0751 21.4465 30.3217 21.3885 30.5754 21.3658C31.0081 21.3148 31.4479 21.3187 31.8793 21.3771C32.389 21.4224 32.8943 21.4959 33.3908 21.5982L33.4966 21.6172V19.5745L33.3015 19.5401C32.7946 19.441 32.2811 19.3664 31.7635 19.3165C31.0927 19.2433 30.4131 19.2409 29.7415 19.3093C28.8908 19.373 28.0815 19.6389 27.4138 20.0742C26.9611 20.3644 26.6167 20.7521 26.4195 21.1936C26.1226 21.8663 26.1219 22.6024 26.4176 23.2753C26.5699 23.6094 26.814 23.9112 27.1325 24.1563C27.4075 24.3733 27.719 24.5573 28.0575 24.7038C28.5031 24.8991 28.975 25.0507 29.464 25.155C29.6257 25.1946 29.7862 25.2363 29.9461 25.2799L30.1883 25.3524L30.2576 25.3756C30.4967 25.4455 30.7144 25.5555 30.8982 25.6983C31.0253 25.796 31.1235 25.9158 31.1845 26.0494C31.2223 26.1712 31.2229 26.2987 31.1864 26.421C31.1098 26.618 30.9417 26.7826 30.7182 26.8795C30.4747 26.9829 30.2107 27.0503 29.9385 27.0784C29.5391 27.1302 29.134 27.147 28.7302 27.1283C28.2008 27.0959 27.674 27.0385 27.1526 26.9566C26.8801 26.9104 26.6089 26.859 26.3402 26.8009L26.2395 26.7803ZM19.2266 29.0841H22.2032V19.4409H19.2266V29.0841ZM53.6864 22.2885C54.0045 22.0768 54.3708 21.9188 54.7642 21.8234C55.1575 21.7281 55.5701 21.6974 55.9781 21.7331C56.386 21.7688 56.7813 21.8702 57.141 22.0314C57.5007 22.1926 57.8177 22.4105 58.0737 22.6723C58.3297 22.9342 58.5197 23.235 58.6325 23.5571C58.7454 23.8793 58.7789 24.2166 58.7313 24.5495C58.6836 24.8823 58.5556 25.2042 58.3547 25.4964C58.1539 25.7886 57.8841 26.0454 57.561 26.2519C56.9162 26.6589 56.1013 26.8426 55.2922 26.7633C54.4831 26.6839 53.7446 26.3479 53.236 25.8278C52.7275 25.3077 52.4897 24.6451 52.574 23.9831C52.6582 23.321 53.0578 22.712 53.6864 22.2885ZM49.365 24.2669C49.3792 25.0195 49.5982 25.7602 50.0063 26.4351C50.4143 27.1101 51.0012 27.7024 51.7243 28.1692C52.4473 28.6359 53.2885 28.9653 54.1868 29.1336C55.0851 29.3019 56.018 29.3048 56.9178 29.1421C58.1265 28.9563 59.2373 28.4745 60.1026 27.7607C60.968 27.0469 61.5469 26.1349 61.7625 25.1459C61.9781 24.157 61.8202 23.1378 61.3097 22.2239C60.7992 21.31 59.9603 20.5446 58.9045 20.0294C57.9668 19.5554 56.8923 19.2924 55.79 19.2671C54.6877 19.2418 53.5968 19.4552 52.628 19.8855C51.6592 20.3158 50.847 20.9477 50.2738 21.7172C49.7007 22.4867 49.3869 23.3663 49.3644 24.2669" fill="#00BCEB"/>
<path d="M0 11.6905C0.0211908 11.9167 0.119984 12.1334 0.285051 12.3158C0.450118 12.4982 0.674778 12.6389 0.933271 12.7218C1.19176 12.8047 1.47363 12.8265 1.74654 12.7845C2.01945 12.7426 2.27237 12.6386 2.47629 12.4847C2.74941 12.2775 2.9168 11.9938 2.94449 11.6905V9.01774C2.93653 8.70312 2.77792 8.40358 2.50269 8.18338C2.22745 7.96317 1.85752 7.83984 1.47225 7.83984C1.08697 7.83984 0.717039 7.96317 0.441807 8.18338C0.166574 8.40358 0.00796417 8.70312 0 9.01774L0 11.6905Z" fill="#00BCEB"/>
<path d="M8.14844 11.6929C8.17666 11.9962 8.344 12.2797 8.61701 12.4865C8.89003 12.6934 9.24858 12.8085 9.621 12.8088C9.99343 12.8088 10.3521 12.6937 10.6251 12.4868C10.898 12.2798 11.0651 11.9963 11.0929 11.6929V5.70122C11.0793 5.38975 10.9182 5.09476 10.6436 4.87835C10.369 4.66195 10.0023 4.54102 9.62068 4.54102C9.2391 4.54102 8.8724 4.66195 8.59779 4.87835C8.32319 5.09476 8.1621 5.38975 8.14844 5.70122V11.6934" fill="#00BCEB"/>
<path d="M16.25 14.1034C16.2767 14.4074 16.4433 14.6918 16.7164 14.8995C16.9895 15.1071 17.3488 15.2226 17.7219 15.2226C18.0951 15.2226 18.4543 15.1071 18.7274 14.8995C19.0005 14.6918 19.1672 14.4074 19.1939 14.1034V1.14288C19.1747 0.834554 19.0113 0.544016 18.7374 0.331312C18.4634 0.118609 18.0999 0 17.7219 0C17.344 0 16.9804 0.118609 16.7065 0.331312C16.4325 0.544016 16.2691 0.834554 16.25 1.14288V14.1034Z" fill="#00BCEB"/>
<path d="M24.4375 11.6929C24.4657 11.9962 24.6331 12.2797 24.9061 12.4865C25.1791 12.6934 25.5376 12.8085 25.9101 12.8088C26.2825 12.8088 26.6411 12.6937 26.9141 12.4868C27.1871 12.2798 27.3542 11.9963 27.382 11.6929V5.70122C27.3683 5.38975 27.2072 5.09476 26.9326 4.87835C26.658 4.66195 26.2913 4.54102 25.9097 4.54102C25.5282 4.54102 25.1615 4.66195 24.8869 4.87835C24.6122 5.09476 24.4512 5.38975 24.4375 5.70122V11.6934" fill="#00BCEB"/>
<path d="M32.5703 11.6905C32.5915 11.9167 32.6903 12.1334 32.8554 12.3158C33.0204 12.4982 33.2451 12.6389 33.5036 12.7218C33.7621 12.8047 34.0439 12.8265 34.3169 12.7845C34.5898 12.7426 34.8427 12.6386 35.0466 12.4847C35.3197 12.2775 35.4871 11.9938 35.5148 11.6905V9.01774C35.5068 8.70312 35.3482 8.40358 35.073 8.18338C34.7978 7.96317 34.4278 7.83984 34.0426 7.83984C33.6573 7.83984 33.2874 7.96317 33.0121 8.18338C32.7369 8.40358 32.5783 8.70312 32.5703 9.01774V11.6905Z" fill="#00BCEB"/>
<path d="M40.7188 11.6929C40.747 11.9962 40.9143 12.2797 41.1873 12.4865C41.4603 12.6934 41.8189 12.8085 42.1913 12.8088C42.5637 12.8088 42.9224 12.6937 43.1954 12.4868C43.4683 12.2798 43.6355 11.9963 43.6632 11.6929V5.70122C43.6496 5.38975 43.4885 5.09476 43.2139 4.87835C42.9393 4.66195 42.5726 4.54102 42.191 4.54102C41.8094 4.54102 41.4427 4.66195 41.1681 4.87835C40.8935 5.09476 40.7324 5.38975 40.7188 5.70122V11.6934" fill="#00BCEB"/>
<path d="M48.8203 14.1034C48.847 14.4074 49.0136 14.6918 49.2868 14.8995C49.5599 15.1071 49.9191 15.2226 50.2922 15.2226C50.6654 15.2226 51.0246 15.1071 51.2977 14.8995C51.5708 14.6918 51.7375 14.4074 51.7642 14.1034V1.14288C51.7451 0.834554 51.5816 0.544016 51.3077 0.331312C51.0337 0.118609 50.6702 0 50.2922 0C49.9143 0 49.5507 0.118609 49.2768 0.331312C49.0029 0.544016 48.8394 0.834554 48.8203 1.14288V14.1034Z" fill="#00BCEB"/>
<path d="M57.0078 11.6929C57.036 11.9962 57.2034 12.2797 57.4764 12.4865C57.7494 12.6934 58.108 12.8085 58.4804 12.8088C58.8528 12.8088 59.2115 12.6937 59.4844 12.4868C59.7574 12.2798 59.9245 11.9963 59.9523 11.6929V5.70122C59.9386 5.38975 59.7776 5.09476 59.503 4.87835C59.2283 4.66195 58.8616 4.54102 58.4801 4.54102C58.0985 4.54102 57.7318 4.66195 57.4572 4.87835C57.1826 5.09476 57.0215 5.38975 57.0078 5.70122V11.6934" fill="#00BCEB"/>
<path d="M65.0547 11.6905C65.0759 11.9167 65.1747 12.1334 65.3397 12.3158C65.5048 12.4982 65.7295 12.6389 65.988 12.7218C66.2465 12.8047 66.5283 12.8265 66.8012 12.7845C67.0741 12.7426 67.3271 12.6386 67.531 12.4847C67.8041 12.2775 67.9715 11.9938 67.9992 11.6905V9.01774C67.9912 8.70312 67.8326 8.40358 67.5574 8.18338C67.2821 7.96317 66.9122 7.83984 66.5269 7.83984C66.1417 7.83984 65.7717 7.96317 65.4965 8.18338C65.2213 8.40358 65.0627 8.70312 65.0547 9.01774V11.6905Z" fill="#00BCEB"/>
</svg>
